<?xml version="1.0" encoding="UTF-8"?> <svg xmlns="http://www.w3.org/2000/svg" width="120" height="120" viewBox="0 0 120 120" fill="none"> <path d="M119.15 60C119.206 67.8589 117.707 75.6514 114.738 82.9284C111.77 90.2053 107.39 96.823 101.853 102.4C96.3152 107.977 89.7287 112.404 82.4728 115.424C75.217 118.445 67.4351 120 59.5756 120C51.716 120 43.9342 118.445 36.6783 115.424C29.4224 112.404 22.836 107.977 17.2984 102.4C11.7609 96.823 7.38165 90.2053 4.41305 82.9284C1.44444 75.6514 -0.0548524 67.8589 0.00153329 60C-0.0548524 52.141 1.44444 44.3486 4.41305 37.0716C7.38165 29.7946 11.7609 23.177 17.2984 17.5998C22.836 12.0226 29.4224 7.59626 36.6783 4.57568C43.9342 1.55509 51.716 0 59.5756 0C67.4351 0 75.217 1.55509 82.4728 4.57568C89.7287 7.59626 96.3152 12.0226 101.853 17.5998C107.39 23.177 111.77 29.7946 114.738 37.0716C117.707 44.3486 119.206 52.141 119.15 60Z" fill="#C45317"></path> <path d="M119.15 60C119.206 67.8589 117.707 75.6514 114.738 82.9284C111.77 90.2053 107.39 96.823 101.853 102.4C96.3152 107.977 89.7287 112.404 82.4728 115.424C75.217 118.445 67.4351 120 59.5756 120C51.716 120 43.9342 118.445 36.6783 115.424C29.4224 112.404 22.836 107.977 17.2984 102.4C11.7609 96.823 7.38165 90.2053 4.41305 82.9284C1.44444 75.6514 -0.0548524 67.8589 0.00153329 60C-0.0548524 52.141 1.44444 44.3486 4.41305 37.0716C7.38165 29.7946 11.7609 23.177 17.2984 17.5998C22.836 12.0226 29.4224 7.59626 36.6783 4.57568C43.9342 1.55509 51.716 0 59.5756 0C67.4351 0 75.217 1.55509 82.4728 4.57568C89.7287 7.59626 96.3152 12.0226 101.853 17.5998C107.39 23.177 111.77 29.7946 114.738 37.0716C117.707 44.3486 119.206 52.141 119.15 60Z" fill="#C45317"></path> <path d="M119.15 60C119.206 67.8589 117.707 75.6514 114.738 82.9284C111.77 90.2053 107.39 96.823 101.853 102.4C96.3152 107.977 89.7287 112.404 82.4728 115.424C75.217 118.445 67.4351 120 59.5756 120C51.716 120 43.9342 118.445 36.6783 115.424C29.4224 112.404 22.836 107.977 17.2984 102.4C11.7609 96.823 7.38165 90.2053 4.41305 82.9284C1.44444 75.6514 -0.0548524 67.8589 0.00153329 60C-0.0548524 52.141 1.44444 44.3486 4.41305 37.0716C7.38165 29.7946 11.7609 23.177 17.2984 17.5998C22.836 12.0226 29.4224 7.59626 36.6783 4.57568C43.9342 1.55509 51.716 0 59.5756 0C67.4351 0 75.217 1.55509 82.4728 4.57568C89.7287 7.59626 96.3152 12.0226 101.853 17.5998C107.39 23.177 111.77 29.7946 114.738 37.0716C117.707 44.3486 119.206 52.141 119.15 60Z" fill="#C45317"></path> <path d="M76.5686 98.0566C79.9415 97.0055 83.6234 95.5786 84.8629 94.8421C85.6957 94.3473 85.8131 94.1804 85.5249 93.9013C83.4372 91.8791 68.7508 79.0113 68.6213 79.0915C68.5266 79.1501 68.2868 80.0673 68.0885 81.1298C67.6972 83.2271 67.3284 83.707 66.1088 83.7064C65.1046 83.7064 64.4423 83.1433 63.4797 81.4729C63.0601 80.7447 62.3817 79.7196 61.9721 79.195C61.5626 78.6704 60.7349 77.3596 60.1328 76.2822C59.5308 75.2047 58.4727 73.4296 57.7815 72.3373C56.1971 69.8333 54.3534 66.7806 53.6558 65.5065C53.3605 64.9671 52.632 63.8676 52.0368 63.0632C51.4417 62.2588 50.6829 61.0672 50.3506 60.4152C50.0183 59.7632 49.0659 58.2169 48.2341 56.9791C47.4022 55.7411 46.4026 54.0987 46.0128 53.3293C45.623 52.5599 44.9071 51.3087 44.4219 50.5489C43.3064 48.802 42.0077 46.2056 41.7833 45.2742C41.6465 44.7064 41.7617 44.4166 42.341 43.8715C43.1221 43.1364 43.1734 43.1366 45.6584 43.8853C46.4989 44.1386 47.2411 44.2913 47.3077 44.2247C47.4275 44.105 41.7407 22.0631 41.5374 21.8602C41.3883 21.7111 34.73 27.3033 34.73 27.5777C34.73 27.7021 34.1505 28.3804 33.4422 29.0853C32.7338 29.7901 31.7286 31.0423 31.2083 31.868C30.3881 33.1697 30.2234 33.7154 29.9694 35.9727C29.1634 43.1363 31.0529 53.7262 34.6392 62.1428C36.5698 66.6736 37.7296 68.9454 39.1005 70.8796C39.7205 71.7541 40.5546 73.1251 40.9543 73.9261C43.1014 78.2298 49.8681 86.0757 54.5904 89.7371C57.8488 92.2636 64.7637 96.782 66.3618 97.4293C71.0356 99.3219 72.2676 99.3977 76.5689 98.0573L76.5686 98.0566ZM88.4886 89.9363C89.5018 87.4463 89.5301 87.3008 89.0846 86.8805C88.7082 86.5254 76.8433 76.1941 75.2058 74.7957C74.8232 74.4689 74.4385 74.5897 72.0583 75.7842C69.7747 76.9301 69.4046 77.2008 69.7138 77.4986C70.8434 78.5867 87.2838 92.6916 87.3482 92.6277C87.3904 92.5855 87.9036 91.3745 88.4887 89.9365L88.4886 89.9363ZM52.0252 42.3167C53.148 41.4616 54.0634 40.7466 54.0593 40.7279C53.7549 39.3084 49.3176 21.9548 49.2394 21.8762C49.0872 21.724 43.4234 20.9297 43.3082 21.0445C43.2363 21.1163 44.7912 27.1278 49.0599 43.282C49.3623 44.4264 49.1743 44.4877 52.025 42.3166L52.0252 42.3167Z" fill="white"></path> </svg> 