<svg width="31" height="31" viewBox="0 0 31 31" fill="none" xmlns="http://www.w3.org/2000/svg">
<g clip-path="url(#clip0_1_952)">
<path d="M30.2874 15.5C30.3015 17.4647 29.9267 19.4128 29.1845 21.2321C28.4424 23.0513 27.3476 24.7058 25.9632 26.1C24.5788 27.4943 22.9322 28.6009 21.1182 29.3561C19.3042 30.1112 17.3588 30.5 15.3939 30.5C13.429 30.5 11.4835 30.1112 9.66958 29.3561C7.85561 28.6009 6.209 27.4943 4.82461 26.1C3.44022 24.7058 2.34541 23.0513 1.60326 21.2321C0.861111 19.4128 0.486287 17.4647 0.500383 15.5C0.486287 13.5353 0.861111 11.5872 1.60326 9.76791C2.34541 7.94866 3.44022 6.29424 4.82461 4.89995C6.209 3.50566 7.85561 2.39906 9.66958 1.64392C11.4835 0.888773 13.429 0.5 15.3939 0.5C17.3588 0.5 19.3042 0.888773 21.1182 1.64392C22.9322 2.39906 24.5788 3.50566 25.9632 4.89995C27.3476 6.29424 28.4424 7.94866 29.1845 9.76791C29.9267 11.5872 30.3015 13.5353 30.2874 15.5Z" fill="#26282E"/>
<path d="M30.2874 15.5C30.3015 17.4647 29.9267 19.4128 29.1845 21.2321C28.4424 23.0513 27.3476 24.7058 25.9632 26.1C24.5788 27.4943 22.9322 28.6009 21.1182 29.3561C19.3042 30.1112 17.3588 30.5 15.3939 30.5C13.429 30.5 11.4835 30.1112 9.66958 29.3561C7.85561 28.6009 6.209 27.4943 4.82461 26.1C3.44022 24.7058 2.34541 23.0513 1.60326 21.2321C0.861111 19.4128 0.486287 17.4647 0.500383 15.5C0.486287 13.5353 0.861111 11.5872 1.60326 9.76791C2.34541 7.94866 3.44022 6.29424 4.82461 4.89995C6.209 3.50566 7.85561 2.39906 9.66958 1.64392C11.4835 0.888773 13.429 0.5 15.3939 0.5C17.3588 0.5 19.3042 0.888773 21.1182 1.64392C22.9322 2.39906 24.5788 3.50566 25.9632 4.89995C27.3476 6.29424 28.4424 7.94866 29.1845 9.76791C29.9267 11.5872 30.3015 13.5353 30.2874 15.5Z" fill="#26282E"/>
<path d="M30.2874 15.5C30.3015 17.4647 29.9267 19.4128 29.1845 21.2321C28.4424 23.0513 27.3476 24.7058 25.9632 26.1C24.5788 27.4943 22.9322 28.6009 21.1182 29.3561C19.3042 30.1112 17.3588 30.5 15.3939 30.5C13.429 30.5 11.4835 30.1112 9.66958 29.3561C7.85561 28.6009 6.209 27.4943 4.82461 26.1C3.44022 24.7058 2.34541 23.0513 1.60326 21.2321C0.861111 19.4128 0.486287 17.4647 0.500383 15.5C0.486287 13.5353 0.861111 11.5872 1.60326 9.76791C2.34541 7.94866 3.44022 6.29424 4.82461 4.89995C6.209 3.50566 7.85561 2.39906 9.66958 1.64392C11.4835 0.888773 13.429 0.5 15.3939 0.5C17.3588 0.5 19.3042 0.888773 21.1182 1.64392C22.9322 2.39906 24.5788 3.50566 25.9632 4.89995C27.3476 6.29424 28.4424 7.94866 29.1845 9.76791C29.9267 11.5872 30.3015 13.5353 30.2874 15.5Z" fill="#26282E"/>
<path d="M19.6422 25.0142C20.4854 24.7514 21.4058 24.3946 21.7157 24.2105C21.9239 24.0868 21.9533 24.0451 21.8812 23.9753C21.3593 23.4698 17.6877 20.2528 17.6553 20.2729C17.6316 20.2875 17.5717 20.5168 17.5221 20.7825C17.4243 21.3068 17.3321 21.4267 17.0272 21.4266C16.7761 21.4266 16.6106 21.2858 16.3699 20.8682C16.265 20.6862 16.0954 20.4299 15.993 20.2987C15.8906 20.1676 15.6837 19.8399 15.5332 19.5705C15.3827 19.3012 15.1182 18.8574 14.9454 18.5843C14.5493 17.9583 14.0883 17.1952 13.9139 16.8766C13.8401 16.7418 13.658 16.4669 13.5092 16.2658C13.3604 16.0647 13.1707 15.7668 13.0877 15.6038C13.0046 15.4408 12.7665 15.0542 12.5585 14.7448C12.3506 14.4353 12.1007 14.0247 12.0032 13.8323C11.9057 13.64 11.7268 13.3272 11.6055 13.1372C11.3266 12.7005 11.0019 12.0514 10.9458 11.8186C10.9116 11.6766 10.9404 11.6041 11.0852 11.4679C11.2805 11.2841 11.2934 11.2842 11.9146 11.4713C12.1247 11.5346 12.3103 11.5728 12.3269 11.5562C12.3569 11.5262 10.9352 6.01578 10.8843 5.96505C10.8471 5.92778 9.18251 7.32582 9.18251 7.39443C9.18251 7.42551 9.03762 7.5951 8.86055 7.77131C8.68346 7.94751 8.43216 8.26057 8.30208 8.467C8.09702 8.79241 8.05584 8.92886 7.99235 9.49317C7.79084 11.2841 8.26324 13.9315 9.15981 16.0357C9.64244 17.1684 9.9324 17.7363 10.2751 18.2199C10.4301 18.4385 10.6387 18.7813 10.7386 18.9815C11.2753 20.0574 12.967 22.0189 14.1476 22.9343C14.9622 23.5659 16.6909 24.6955 17.0905 24.8573C18.2589 25.3305 18.5669 25.3493 19.6422 25.0142ZM22.6222 22.9841C22.8754 22.3616 22.8825 22.3252 22.7712 22.2201C22.677 22.1313 19.7108 19.5485 19.3015 19.1989C19.2058 19.1172 19.1096 19.1474 18.5146 19.446C17.9437 19.7325 17.8511 19.8002 17.9285 19.8747C18.2108 20.1467 22.321 23.6729 22.337 23.6569C22.3476 23.6464 22.4759 23.3436 22.6222 22.9841ZM13.5063 11.0792C13.787 10.8654 14.0158 10.6867 14.0148 10.682C13.9387 10.3271 12.8294 5.98871 12.8098 5.96905C12.7718 5.93099 11.3558 5.73242 11.327 5.76113C11.3091 5.77908 11.6978 7.28196 12.765 11.3205C12.8406 11.6066 12.7936 11.622 13.5063 11.0792Z" fill="white"/>
</g>
<defs>
<clipPath id="clip0_1_952">
<rect width="30" height="30" fill="white" transform="translate(0.5 0.5)"/>
</clipPath>
</defs>
</svg>
