<svg width="131" height="55" viewBox="0 0 131 55" fill="none" xmlns="http://www.w3.org/2000/svg">
<g clip-path="url(#clip0_1_934)">
<path d="M3.46389 37.9816C3.46389 38.7471 3.57324 39.1625 3.79195 39.2281C4.01045 39.2937 4.40413 39.0312 4.97299 38.4407C5.76013 37.6321 6.6508 37.0306 7.64601 36.6369C8.64083 36.2432 9.64148 36.0463 10.6473 36.0463C11.6528 36.0463 12.5991 36.249 13.4845 36.6534C14.3702 37.0583 15.0969 37.6648 15.6656 38.4737C16.1249 39.1516 16.5131 39.5018 16.8302 39.5234C17.1468 39.5453 17.5568 39.2721 18.0601 38.7032C18.7377 37.9602 19.5032 37.3697 20.3562 36.9319C21.2091 36.4949 22.0833 36.2216 22.9801 36.112C23.8765 36.0028 24.7511 36.0463 25.6041 36.2432C26.4569 36.44 27.2219 36.801 27.9 37.3255C28.5777 37.8504 29.1189 38.5343 29.5236 39.3758C29.9281 40.2177 30.1303 41.2181 30.1303 42.3771V53.8897H27.3099V42.5079C27.3099 41.0213 27.0526 39.8511 26.5392 38.9986C26.0249 38.1458 25.3744 37.5828 24.5872 37.3093C23.8001 37.036 22.9526 37.0254 22.0454 37.2764C21.1377 37.5282 20.2955 38.0035 19.5194 38.7032C18.7431 39.4033 18.093 40.2998 17.5681 41.3929C17.0433 42.4863 16.781 43.7436 16.781 45.1646V53.8897H13.96V42.5079C13.96 41.0649 13.714 39.9225 13.2221 39.0804C12.7303 38.2389 12.1179 37.67 11.3853 37.3749C10.6523 37.0795 9.84373 37.0306 8.95829 37.2272C8.07238 37.424 7.24109 37.8342 6.46544 38.4572C5.6889 39.0804 5.02194 39.8955 4.46453 40.901C3.90693 41.9068 3.57324 43.0658 3.46389 44.3779V53.8897H0.512146V36.0137H3.46389V37.9816Z" fill="black"/>
<path d="M47.6781 42.4751C47.4598 41.8632 47.175 41.8632 46.8255 42.4751C46.3008 43.3937 45.5841 44.0716 44.6771 44.5091C43.7692 44.9466 42.8018 45.2526 41.774 45.4273C40.7462 45.6025 39.7241 45.7061 38.7075 45.7389C37.6906 45.7717 36.7887 45.8321 36.0013 45.9192C35.2358 46.0068 34.6509 46.2364 34.2466 46.6079C33.8417 46.9798 33.5957 47.395 33.5084 47.8545C33.4209 48.3136 33.4974 48.7619 33.7384 49.199C33.9788 49.6369 34.3614 49.9649 34.8861 50.1832C36.045 50.6644 37.2094 50.9375 38.3794 51.0031C39.549 51.0687 40.6642 50.9703 41.7248 50.7079C42.7854 50.4456 43.7584 50.0469 44.6443 49.5106C45.5297 48.9751 46.2516 48.3412 46.8091 47.6085C47.3666 46.8763 47.7325 46.0672 47.9077 45.181C48.0824 44.2955 48.0065 43.3937 47.6781 42.4751ZM47.1534 51.0031C47.1534 50.0413 47.0878 49.5494 46.9567 49.5274C46.8255 49.5058 46.4423 49.8993 45.8085 50.7079C45.1526 51.561 44.3491 52.2557 43.3977 52.7912C42.4467 53.3267 41.4409 53.6714 40.38 53.8242C39.3194 53.9765 38.259 53.917 37.1986 53.6438C36.1378 53.3707 35.1814 52.8516 34.3287 52.0857C33.7598 51.561 33.312 50.9435 32.9837 50.2324C32.6559 49.5222 32.4805 48.8003 32.4588 48.0676C32.437 47.335 32.5738 46.6243 32.869 45.9356C33.1643 45.2466 33.6507 44.6731 34.3287 44.2136C34.9404 43.7988 35.7064 43.4813 36.6245 43.2625C37.5431 43.0442 38.4939 42.869 39.4781 42.7378C40.4621 42.6063 41.4297 42.4975 42.3811 42.4095C43.3321 42.3227 44.152 42.1911 44.841 42.016C45.5297 41.8412 46.0268 41.5952 46.3336 41.2781C46.6391 40.9614 46.6499 40.5075 46.3664 39.9167C45.8413 39.0204 45.125 38.3153 44.2176 37.8013C43.3101 37.2879 42.3263 37.0306 41.2657 37.0306C40.2049 37.0306 39.128 37.3043 38.0351 37.8504C36.9416 38.3972 35.9465 39.2831 35.05 40.5075L33.2791 38.9986C33.9788 38.1241 34.8748 37.4461 35.9688 36.9648C37.0617 36.484 38.2317 36.1889 39.4781 36.0794C40.7246 35.9702 41.9816 36.0414 43.2501 36.2924C44.5183 36.544 45.6613 36.9704 46.6775 37.5718C47.6949 38.1733 48.52 38.9329 49.1538 39.8511C49.7881 40.7698 50.1053 41.8412 50.1053 43.0658V53.8898H47.1534V51.0031Z" fill="black"/>
<path d="M55.6811 38.1458C55.6811 38.9113 55.7959 39.3266 56.025 39.3922C56.2554 39.4578 56.6537 39.2064 57.2228 38.6375C57.9442 37.8946 58.7749 37.3093 59.7155 36.8829C60.6557 36.4565 61.6064 36.1888 62.569 36.0793C63.5308 35.9702 64.477 36.0193 65.4065 36.2268C66.3351 36.4349 67.1665 36.801 67.8992 37.3255C68.6319 37.8504 69.2161 38.5343 69.6541 39.3758C70.0908 40.2177 70.3099 41.2181 70.3099 42.3771V53.8897H67.4893V42.5079C67.4893 41.0649 67.2157 39.9225 66.669 39.0804C66.1223 38.2389 65.4277 37.67 64.5862 37.3749C63.7444 37.0795 62.8317 37.0306 61.8475 37.2272C60.8637 37.424 59.9339 37.8398 59.0596 38.4737C58.1846 39.1081 57.4303 39.9331 56.7961 40.9502C56.1622 41.9672 55.7907 43.1313 55.6811 44.4435V53.8897H52.7288V36.0137H55.6811V38.1458Z" fill="black"/>
<path d="M87.8575 42.4751C87.6387 41.8632 87.3539 41.8632 87.0048 42.4751C86.4801 43.3937 85.7634 44.0716 84.8564 44.5091C83.949 44.9466 82.9816 45.2526 81.9534 45.4273C80.9255 45.6025 79.9037 45.7061 78.8867 45.7389C77.8701 45.7717 76.9683 45.8321 76.1808 45.9192C75.4154 46.0068 74.8307 46.2364 74.426 46.6079C74.0212 46.9798 73.7753 47.395 73.6877 47.8545C73.6005 48.3136 73.6765 48.7619 73.9177 49.199C74.158 49.6369 74.5411 49.9649 75.0658 50.1832C76.2244 50.6644 77.3886 50.9375 78.5588 51.0031C79.7282 51.0687 80.8432 50.9703 81.9046 50.7079C82.9652 50.4456 83.9382 50.0469 84.824 49.5106C85.7091 48.9751 86.4309 48.3412 86.9884 47.6085C87.5459 46.8763 87.9118 46.0672 88.0874 45.181C88.2622 44.2955 88.1854 43.3937 87.8575 42.4751ZM87.3327 51.0031C87.3327 50.0413 87.2672 49.5494 87.136 49.5274C87.0048 49.5058 86.6221 49.8993 85.9878 50.7079C85.3319 51.561 84.5285 52.2557 83.5771 52.7912C82.626 53.3267 81.6202 53.6714 80.5596 53.8242C79.499 53.9765 78.4384 53.917 77.3782 53.6438C76.3172 53.3707 75.361 52.8516 74.5083 52.0857C73.9388 51.561 73.4909 50.9435 73.163 50.2324C72.8351 49.5222 72.6599 48.8003 72.6383 48.0676C72.6167 47.335 72.7531 46.6243 73.0486 45.9356C73.3438 45.2466 73.8301 44.6731 74.5083 44.2136C75.1202 43.7988 75.8857 43.4813 76.8039 43.2625C77.7221 43.0442 78.6736 42.869 79.6574 42.7378C80.6416 42.6063 81.609 42.4975 82.5604 42.4095C83.5115 42.3227 84.3317 42.1911 85.02 42.016C85.7091 41.8412 86.2066 41.5952 86.5125 41.2781C86.8188 40.9614 86.83 40.5075 86.5457 39.9167C86.021 39.0204 85.3043 38.3153 84.3973 37.8013C83.4899 37.2879 82.5061 37.0306 81.4454 37.0306C80.3848 37.0306 79.3075 37.3043 78.2145 37.8504C77.1207 38.3972 76.1256 39.2831 75.2298 40.5075L73.4585 38.9986C74.158 38.1241 75.0546 37.4461 76.148 36.9648C77.2414 36.484 78.4112 36.1889 79.6574 36.0794C80.9039 35.9702 82.1613 36.0414 83.4299 36.2924C84.6976 36.544 85.8406 36.9704 86.8572 37.5718C87.8738 38.1733 88.6989 38.9329 89.3336 39.8511C89.9675 40.7698 90.2846 41.8412 90.2846 43.0658V53.8898H87.3327V51.0031Z" fill="black"/>
<path d="M95.8608 38.1458C95.8608 38.9113 95.9755 39.3266 96.2055 39.3922C96.4346 39.4578 96.8334 39.2064 97.4025 38.6375C98.1239 37.8946 98.9546 37.3093 99.8952 36.8829C100.835 36.4565 101.786 36.1888 102.749 36.0793C103.71 35.9702 104.657 36.0193 105.586 36.2268C106.515 36.4349 107.346 36.801 108.079 37.3255C108.811 37.8504 109.396 38.5343 109.834 39.3758C110.27 40.2177 110.49 41.2181 110.49 42.3771V53.8897H107.669V42.5079C107.669 41.0649 107.395 39.9225 106.849 39.0804C106.302 38.2389 105.607 37.67 104.766 37.3749C103.924 37.0795 103.011 37.0306 102.027 37.2272C101.043 37.424 100.114 37.8398 99.2389 38.4737C98.3643 39.1081 97.61 39.9331 96.9757 40.9502C96.3415 41.9672 95.9703 43.1313 95.8608 44.4435V53.8897H92.9089V36.0137H95.8608V38.1458Z" fill="black"/>
<path d="M128.038 42.4751C127.819 41.8632 127.534 41.8632 127.185 42.4751C126.66 43.3937 125.944 44.0716 125.036 44.5091C124.129 44.9466 123.161 45.2526 122.134 45.4273C121.106 45.6025 120.083 45.7061 119.067 45.7389C118.05 45.7717 117.148 45.8321 116.361 45.9192C115.595 46.0068 115.01 46.2364 114.606 46.6079C114.201 46.9798 113.955 47.395 113.868 47.8545C113.78 48.3136 113.857 48.7619 114.098 49.199C114.338 49.6369 114.721 49.9649 115.246 50.1832C116.404 50.6644 117.569 50.9375 118.738 51.0031C119.909 51.0687 121.023 50.9703 122.084 50.7079C123.144 50.4456 124.118 50.0469 125.003 49.5106C125.889 48.9751 126.611 48.3412 127.169 47.6085C127.726 46.8763 128.092 46.0672 128.267 45.181C128.442 44.2955 128.365 43.3937 128.038 42.4751ZM127.512 51.0031C127.512 50.0413 127.447 49.5494 127.316 49.5274C127.185 49.5058 126.802 49.8993 126.167 50.7079C125.512 51.561 124.708 52.2557 123.757 52.7912C122.806 53.3267 121.8 53.6714 120.739 53.8242C119.679 53.9765 118.618 53.917 117.558 53.6438C116.497 53.3707 115.541 52.8516 114.688 52.0857C114.119 51.561 113.671 50.9435 113.343 50.2324C113.015 49.5222 112.84 48.8003 112.818 48.0676C112.796 47.335 112.933 46.6243 113.228 45.9356C113.523 45.2466 114.01 44.6731 114.688 44.2136C115.3 43.7988 116.065 43.4813 116.984 43.2625C117.903 43.0442 118.853 42.869 119.837 42.7378C120.821 42.6063 121.789 42.4975 122.741 42.4095C123.691 42.3227 124.511 42.1911 125.2 42.016C125.889 41.8412 126.386 41.5952 126.692 41.2781C126.999 40.9614 127.01 40.5075 126.725 39.9167C126.201 39.0204 125.484 38.3153 124.577 37.8013C123.669 37.2879 122.686 37.0306 121.625 37.0306C120.565 37.0306 119.487 37.3043 118.394 37.8504C117.3 38.3972 116.306 39.2831 115.41 40.5075L113.638 38.9986C114.338 38.1241 115.234 37.4461 116.328 36.9648C117.421 36.484 118.591 36.1889 119.837 36.0794C121.084 35.9702 122.341 36.0414 123.61 36.2924C124.878 36.544 126.02 36.9704 127.037 37.5718C128.054 38.1733 128.879 38.9329 129.513 39.8511C130.147 40.7698 130.465 41.8412 130.465 43.0658V53.8898H127.512V51.0031Z" fill="black"/>
<path d="M65.4872 11.1098L63.1552 13.4417L65.4872 15.7738L67.8188 13.4417L65.4872 11.1098ZM55.937 10.0524C55.0719 10.0524 54.2093 10.3819 53.5478 11.0437C52.8887 11.7027 52.5592 12.5676 52.5592 13.4302C52.5592 14.2953 52.8887 15.1606 53.5478 15.8196C54.8684 17.1379 57.006 17.1379 58.3237 15.8196L60.7129 13.4302L60.7109 13.4278L58.3237 11.0437C57.6651 10.3819 56.8 10.0524 55.937 10.0524ZM63.1004 15.8173L61.9379 14.6546L58.9284 17.6663C56.5897 20.003 52.7992 20.003 50.4604 17.6663C49.291 16.497 48.7079 14.9637 48.7079 13.4302C48.7079 11.8995 49.291 10.3659 50.4604 9.19652C51.6302 8.02713 53.1611 7.44324 54.6944 7.44324C56.2273 7.44324 57.759 8.02713 58.9284 9.19652L61.9351 12.2034L63.0976 11.041L59.0292 6.97185C57.2459 5.1871 54.9092 4.29663 52.5704 4.29663C50.2316 4.29663 47.8929 5.1871 46.1104 6.97185C44.3271 8.75712 43.4345 11.0938 43.4345 13.4302C43.4345 15.7694 44.3271 18.1081 46.1104 19.8907C49.6641 23.4446 55.4203 23.4586 58.9876 19.9322C58.9992 19.9182 59.0124 19.9045 59.0292 19.8907V19.8886L63.1004 15.8196V15.8173ZM65.4892 18.2067L63.1004 20.5958C62.4414 21.2549 62.1118 22.1199 62.1118 22.9826C62.1118 23.8477 62.4414 24.7127 63.1004 25.3718C63.7615 26.031 64.6242 26.3604 65.4892 26.3604C66.3518 26.3604 67.2173 26.031 67.8764 25.3718C69.1969 24.0537 69.1969 21.9137 67.8764 20.5958L65.4892 18.2067ZM65.4872 8.6521L65.4892 8.65422L67.8764 6.26746C68.5354 5.60787 68.8674 4.74295 68.8674 3.87804C68.8674 3.0126 68.5354 2.15036 67.8764 1.49129C67.2173 0.829542 66.3518 0.5 65.4892 0.5C64.6242 0.5 63.7615 0.829542 63.1004 1.49129C61.7815 2.80944 61.7815 4.94663 63.1004 6.26746L65.4872 8.6521ZM75.0414 16.8082C75.9069 16.8082 76.7699 16.4786 77.431 15.8196C78.09 15.1606 78.4196 14.2953 78.4196 13.4302C78.4196 12.5676 78.09 11.7027 77.431 11.0437C76.11 9.72282 73.9728 9.72282 72.6547 11.0437L70.2659 13.4302L72.6547 15.8196C73.3137 16.4786 74.1788 16.8082 75.0414 16.8082ZM87.5415 13.4302C87.5415 15.7694 86.6516 18.1081 84.8664 19.8907C83.0839 21.6737 80.7471 22.5663 78.4084 22.5663C76.0876 22.5663 73.7673 21.6872 71.9888 19.9322C71.9756 19.9182 71.9616 19.9024 71.9476 19.8886L67.8764 15.8173V15.8148L69.0361 14.6546L72.046 17.6663C73.2154 18.8357 74.7463 19.4194 76.2796 19.4194C77.8133 19.4194 79.3442 18.8357 80.5136 17.6663C81.683 16.497 82.2665 14.9637 82.2665 13.4302C82.2665 11.8995 81.683 10.3659 80.5136 9.19652C78.1748 6.85775 74.3851 6.85775 72.046 9.19652L69.0389 12.2034L67.8787 11.0437L71.9476 6.97185C75.5157 3.40399 81.3006 3.40399 84.8664 6.97185C86.6516 8.75712 87.5415 11.0938 87.5415 13.4302Z" fill="black"/>
</g>
<defs>
<clipPath id="clip0_1_934">
<rect width="129.976" height="53.59" fill="white" transform="translate(0.512146 0.5)"/>
</clipPath>
</defs>
</svg>
