<svg width="769" height="317" viewBox="0 0 769 317" fill="none" xmlns="http://www.w3.org/2000/svg">
<g clip-path="url(#clip0_1_6)">
<g clip-path="url(#clip1_1_6)">
<g clip-path="url(#clip2_1_6)">
<path d="M17.9555 221.652C17.9555 226.175 18.6016 228.629 19.8939 229.017C21.1849 229.404 23.5109 227.853 26.8721 224.365C31.523 219.587 36.7856 216.032 42.6658 213.707C48.5438 211.38 54.4562 210.217 60.3993 210.217C66.3401 210.217 71.9312 211.415 77.1628 213.804C82.3961 216.196 86.6901 219.78 90.0501 224.559C92.7637 228.565 95.0577 230.634 96.9311 230.762C98.8016 230.891 101.225 229.276 104.198 225.915C108.202 221.525 112.725 218.036 117.765 215.449C122.804 212.867 127.97 211.253 133.268 210.605C138.565 209.96 143.733 210.217 148.773 211.38C153.811 212.543 158.331 214.676 162.338 217.775C166.342 220.877 169.54 224.917 171.931 229.889C174.321 234.864 175.516 240.775 175.516 247.623V315.646H158.851V248.396C158.851 239.612 157.331 232.698 154.297 227.66C151.258 222.622 147.415 219.295 142.764 217.679C138.113 216.065 133.106 216.002 127.746 217.485C122.382 218.972 117.406 221.781 112.821 225.915C108.234 230.052 104.393 235.349 101.291 241.808C98.1901 248.268 96.6404 255.697 96.6404 264.093V315.646H79.9726V248.396C79.9726 239.87 78.5192 233.12 75.6122 228.144C72.7067 223.172 69.088 219.811 64.7598 218.067C60.4289 216.322 55.6512 216.032 50.4195 217.194C45.185 218.357 40.2733 220.781 35.6903 224.462C31.1021 228.144 27.1614 232.96 23.8679 238.901C20.5732 244.844 18.6016 251.692 17.9555 259.445V315.646H0.514923V210.024H17.9555V221.652Z" fill="#FAE9D6"/>
<path d="M279.198 248.202C277.906 244.586 276.226 244.586 274.16 248.202C271.058 253.63 266.826 257.635 261.464 260.22C256.102 262.805 250.384 264.613 244.314 265.643C238.241 266.68 232.2 267.292 226.193 267.486C220.185 267.68 214.856 268.037 210.204 268.552C205.681 269.069 202.225 270.426 199.836 272.621C197.444 274.818 195.99 277.271 195.475 279.986C194.958 282.699 195.409 285.348 196.833 287.931C198.254 290.518 200.514 292.456 203.615 293.746C210.462 296.589 217.342 298.203 224.255 298.59C231.165 298.978 237.754 298.396 244.023 296.846C250.29 295.296 256.039 292.94 261.27 289.771C266.502 286.607 270.767 282.862 274.064 278.533C277.358 274.206 279.52 269.424 280.552 264.19C281.587 258.958 281.136 253.63 279.198 248.202ZM276.096 298.59C276.096 292.907 275.708 290.001 274.933 289.871C274.16 289.743 271.897 292.068 268.151 296.846C264.276 301.886 259.526 305.989 253.907 309.153C248.288 312.319 242.343 314.356 236.076 315.259C229.809 316.159 223.544 315.807 217.278 314.193C211.01 312.577 205.36 309.512 200.321 304.987C196.96 301.886 194.314 298.238 192.374 294.037C190.437 289.84 189.401 285.575 189.273 281.246C189.144 276.917 189.952 272.718 191.696 268.649C193.442 264.577 196.315 261.189 200.321 258.474C203.936 256.023 208.461 254.147 213.886 252.855C219.314 251.564 224.932 250.529 230.747 249.752C236.561 248.977 242.277 248.332 247.901 247.814C253.52 247.299 258.364 246.524 262.435 245.489C266.502 244.456 269.442 243.003 271.252 241.127C273.059 239.258 273.123 236.574 271.445 233.085C268.345 227.79 264.111 223.623 258.751 220.586C253.39 217.552 247.574 216.032 241.31 216.032C235.041 216.032 228.678 217.65 222.221 220.876C215.759 224.107 209.88 229.342 204.583 236.574L194.119 227.66C198.254 222.494 203.548 218.488 210.012 215.643C216.47 212.803 223.382 211.059 230.747 210.412C238.111 209.767 245.54 210.188 253.033 211.671C260.526 213.157 267.279 215.677 273.286 219.23C279.295 222.784 284.17 227.273 287.918 232.698C291.663 238.126 293.539 244.456 293.539 251.692V315.646H276.096V298.59Z" fill="#FAE9D6"/>
<path d="M326.484 222.622C326.484 227.145 327.16 229.599 328.516 229.986C329.877 230.374 332.231 228.888 335.591 225.527C339.854 221.138 344.764 217.679 350.322 215.16C355.875 212.641 361.494 211.059 367.179 210.412C372.865 209.767 378.453 210.057 383.945 211.283C389.434 212.513 394.344 214.676 398.673 217.775C403.002 220.877 406.457 224.917 409.042 229.889C411.622 234.864 412.917 240.775 412.917 247.623V315.646H396.251V248.396C396.251 239.87 394.635 233.12 391.405 228.144C388.177 223.172 384.07 219.811 379.098 218.067C374.124 216.322 368.734 216.032 362.916 217.194C357.104 218.357 351.61 220.814 346.446 224.559C341.276 228.308 336.817 233.182 333.072 239.192C329.324 245.198 327.129 252.08 326.484 259.832V315.646H309.04V210.024H326.484V222.622Z" fill="#FAE9D6"/>
<path d="M516.6 248.202C515.308 244.586 513.625 244.586 511.562 248.202C508.462 253.63 504.228 257.635 498.868 260.22C493.507 262.805 487.791 264.613 481.716 265.643C475.643 266.68 469.605 267.292 463.596 267.486C457.589 267.68 452.261 268.037 447.608 268.552C443.085 269.069 439.631 270.426 437.239 272.621C434.848 274.818 433.395 277.271 432.877 279.986C432.362 282.699 432.811 285.348 434.236 287.931C435.656 290.518 437.92 292.456 441.02 293.746C447.866 296.589 454.744 298.203 461.659 298.59C468.568 298.978 475.156 298.396 481.427 296.846C487.694 295.296 493.443 292.94 498.677 289.771C503.906 286.607 508.172 282.862 511.466 278.533C514.76 274.206 516.922 269.424 517.959 264.19C518.992 258.958 518.538 253.63 516.6 248.202ZM513.5 298.59C513.5 292.907 513.113 290.001 512.337 289.871C511.562 289.743 509.301 292.068 505.553 296.846C501.678 301.886 496.931 305.989 491.309 309.153C485.69 312.319 479.747 314.356 473.481 315.259C467.214 316.159 460.947 315.807 454.683 314.193C448.414 312.577 442.764 309.512 437.726 304.987C434.361 301.886 431.715 298.238 429.777 294.037C427.839 289.84 426.805 285.575 426.677 281.246C426.549 276.917 427.355 272.718 429.101 268.649C430.845 264.577 433.719 261.189 437.726 258.474C441.342 256.023 445.864 254.147 451.29 252.855C456.715 251.564 462.337 250.529 468.15 249.752C473.965 248.977 479.681 248.332 485.303 247.814C490.922 247.299 495.768 246.524 499.835 245.489C503.906 244.456 506.846 243.003 508.654 241.127C510.464 239.258 510.53 236.574 508.85 233.085C505.749 227.79 501.515 223.623 496.156 220.586C490.794 217.552 484.981 216.032 478.715 216.032C472.448 216.032 466.082 217.65 459.624 220.876C453.161 224.107 447.282 229.342 441.989 236.574L431.523 227.66C435.656 222.494 440.954 218.488 447.414 215.643C453.875 212.803 460.787 211.059 468.15 210.412C475.515 209.767 482.944 210.188 490.44 211.671C497.93 213.157 504.684 215.677 510.69 219.23C516.697 222.784 521.572 227.273 525.322 232.698C529.067 238.126 530.941 244.456 530.941 251.692V315.646H513.5V298.59Z" fill="#FAE9D6"/>
<path d="M563.888 222.622C563.888 227.145 564.567 229.599 565.923 229.986C567.279 230.374 569.635 228.888 572.998 225.527C577.26 221.138 582.168 217.679 587.726 215.16C593.277 212.641 598.898 211.059 604.586 210.412C610.269 209.767 615.857 210.057 621.349 211.283C626.838 212.513 631.746 214.676 636.08 217.775C640.404 220.877 643.861 224.917 646.449 229.889C649.029 234.864 650.324 240.775 650.324 247.623V315.646H633.656V248.396C633.656 239.87 632.037 233.12 628.811 228.144C625.581 223.172 621.477 219.811 616.505 218.067C611.529 216.322 606.136 216.032 600.323 217.194C594.51 218.357 589.014 220.814 583.849 224.559C578.681 228.308 574.222 233.182 570.476 239.192C566.726 245.198 564.533 252.08 563.888 259.832V315.646H546.447V210.024H563.888V222.622Z" fill="#FAE9D6"/>
<path d="M754.007 248.202C752.717 244.586 751.034 244.586 748.969 248.202C745.867 253.63 741.634 257.635 736.273 260.22C730.911 262.805 725.195 264.613 719.125 265.643C713.049 266.68 707.01 267.292 701.005 267.486C694.994 267.68 689.665 268.037 685.013 268.552C680.49 269.069 677.035 270.426 674.646 272.621C672.255 274.818 670.799 277.271 670.286 279.986C669.767 282.699 670.218 285.348 671.643 287.931C673.061 290.518 675.324 292.456 678.425 293.746C685.27 296.589 692.151 298.203 699.063 298.59C705.977 298.978 712.563 298.396 718.829 296.846C725.096 295.296 730.847 292.94 736.079 289.771C741.313 286.607 745.576 282.862 748.872 278.533C752.164 274.206 754.328 269.424 755.363 264.19C756.396 258.958 755.945 253.63 754.007 248.202ZM750.904 298.59C750.904 292.907 750.517 290.001 749.742 289.871C748.969 289.743 746.705 292.068 742.958 296.846C739.082 301.886 734.335 305.989 728.714 309.153C723.097 312.319 717.152 314.356 710.885 315.259C704.618 316.159 698.352 315.807 692.087 314.193C685.818 312.577 680.169 309.512 675.131 304.987C671.77 301.886 669.124 298.238 667.186 294.037C665.244 289.84 664.211 285.575 664.081 281.246C663.951 276.917 664.762 272.718 666.506 268.649C668.25 264.577 671.123 261.189 675.131 258.474C678.746 256.023 683.269 254.147 688.694 252.855C694.124 251.564 699.741 250.529 705.556 249.752C711.369 248.977 717.088 248.332 722.709 247.814C728.326 247.299 733.173 246.524 737.244 245.489C741.313 244.456 744.25 243.003 746.058 241.127C747.87 239.258 747.934 236.574 746.254 233.085C743.154 227.79 738.919 223.623 733.56 220.586C728.196 217.552 722.386 216.032 716.119 216.032C709.852 216.032 703.486 217.65 697.028 220.876C690.566 224.107 684.691 229.342 679.393 236.574L668.928 227.66C673.061 222.494 678.358 218.488 684.819 215.643C691.279 212.803 698.191 211.059 705.556 210.412C712.919 209.767 720.349 210.188 727.844 211.671C735.337 213.157 742.088 215.677 748.095 219.23C754.106 222.784 758.979 227.273 762.726 232.698C766.472 238.126 768.35 244.456 768.35 251.692V315.646H750.904V298.59Z" fill="#FAE9D6"/>
<path d="M384.424 62.8784L370.646 76.6569L384.424 90.4362L398.203 76.6569L384.424 62.8784ZM327.996 56.6306C322.885 56.6306 317.788 58.5777 313.882 62.4878C309.986 66.382 308.041 71.4924 308.041 76.5891C308.041 81.7005 309.986 86.8128 313.882 90.7068C321.682 98.4961 334.313 98.4961 342.099 90.7068L356.217 76.5891L356.203 76.5747L342.099 62.4878C338.207 58.5777 333.098 56.6306 327.996 56.6306ZM370.322 90.6933L363.453 83.8234L345.671 101.619C331.853 115.425 309.459 115.425 295.64 101.619C288.731 94.7092 285.283 85.6497 285.283 76.5891C285.283 67.5445 288.731 58.4832 295.64 51.5738C302.549 44.6645 311.595 41.2145 320.655 41.2145C329.714 41.2145 338.762 44.6645 345.671 51.5738L363.439 69.3404L370.306 62.4719L346.267 38.4293C335.73 27.8842 321.926 22.6226 308.105 22.6226C294.288 22.6226 280.467 27.8842 269.935 38.4293C259.401 48.9776 254.127 62.7838 254.127 76.5891C254.127 90.4104 259.401 104.229 269.935 114.761C290.935 135.76 324.943 135.842 346.021 115.006C346.09 114.924 346.17 114.843 346.267 114.761V114.749L370.322 90.7068V90.6933ZM384.436 104.811L370.322 118.927C366.428 122.821 364.481 127.932 364.481 133.03C364.481 138.141 366.428 143.252 370.322 147.147C374.228 151.042 379.327 152.987 384.436 152.987C389.536 152.987 394.649 151.042 398.543 147.147C406.343 139.359 406.343 126.714 398.543 118.927L384.436 104.811ZM384.424 48.3571L384.436 48.3696L398.543 34.2673C402.437 30.3701 404.396 25.2596 404.396 20.1493C404.396 15.0358 402.437 9.94125 398.543 6.04705C394.649 2.1371 389.536 0.189972 384.436 0.189972C379.327 0.189972 374.228 2.1371 370.322 6.04705C362.531 13.8354 362.531 26.4633 370.322 34.2673L384.424 48.3571ZM440.878 96.5478C445.992 96.5478 451.089 94.6007 454.995 90.7068C458.889 86.8128 460.836 81.7005 460.836 76.5891C460.836 71.4924 458.889 66.382 454.995 62.4878C447.192 54.6835 434.565 54.6835 426.776 62.4878L412.66 76.5891L426.776 90.7068C430.67 94.6007 435.779 96.5478 440.878 96.5478ZM514.736 76.5891C514.736 90.4104 509.476 104.229 498.928 114.761C488.396 125.296 474.589 130.57 460.77 130.57C447.06 130.57 433.348 125.376 422.839 115.006C422.761 114.924 422.679 114.83 422.598 114.749L398.543 90.6933V90.6784L405.396 83.8234L423.177 101.619C430.087 108.528 439.132 111.976 448.194 111.976C457.254 111.976 466.299 108.528 473.209 101.619C480.118 94.7092 483.566 85.6497 483.566 76.5891C483.566 67.5445 480.118 58.4832 473.209 51.5738C459.39 37.7551 436.998 37.7551 423.177 51.5738L405.41 69.3404L398.555 62.4878L422.598 38.4293C443.679 17.3484 477.859 17.3484 498.928 38.4293C509.476 48.9776 514.736 62.7838 514.736 76.5891Z" fill="#FAE9D6"/>
</g>
</g>
</g>
<defs>
<clipPath id="clip0_1_6">
<rect width="768" height="316.64" fill="white" transform="translate(0.5 0.190002)"/>
</clipPath>
<clipPath id="clip1_1_6">
<rect width="768" height="316.64" fill="white" transform="translate(0.5 0.190002)"/>
</clipPath>
<clipPath id="clip2_1_6">
<rect width="767.97" height="316.64" fill="white" transform="translate(0.514923 0.190002)"/>
</clipPath>
</defs>
</svg>
