<?xml version="1.0" encoding="UTF-8"?> <svg xmlns="http://www.w3.org/2000/svg" width="120" height="120" viewBox="0 0 120 120" fill="none"> <circle cx="60" cy="60" r="60" fill="#C45317"></circle> <path d="M60.0072 18C48.5998 18 47.1698 18.0725 42.6897 18.2569C38.2189 18.4611 35.1716 19.1607 32.5 20.1995C29.7378 21.2726 27.3858 22.7152 25.0507 25.0504C22.7156 27.3856 21.2864 29.7247 20.2131 32.4868C19.1745 35.1586 18.4615 38.2184 18.2576 42.6892C18.0527 47.1692 18 48.5993 18 60.0066C18 71.4145 18.0527 72.8439 18.2576 77.3239C18.4618 81.7948 19.1745 84.842 20.2131 87.5139C21.2864 90.2759 22.7156 92.6151 25.0507 94.9503C27.3858 97.2855 29.7378 98.7268 32.5 99.8005C35.1716 100.839 38.2189 101.552 42.6897 101.756C47.1698 101.96 48.5998 102 60.0072 102C71.4145 102 72.8445 101.934 77.3246 101.756C81.7953 101.552 84.8556 100.839 87.5271 99.8005C90.2894 98.7268 92.6286 97.2855 94.9636 94.9503C97.2988 92.6151 98.7279 90.2759 99.8011 87.5139C100.84 84.842 101.553 81.7948 101.757 77.3239C101.962 72.8439 102.014 71.4145 102.014 60.0066C102.014 48.5993 101.962 47.1692 101.757 42.6892C101.553 38.2184 100.84 35.1586 99.8011 32.4868C98.7279 29.7247 97.2988 27.3856 94.9636 25.0504C92.6286 22.7152 90.2894 21.2726 87.5271 20.1995C84.8556 19.1607 81.7953 18.4611 77.3246 18.2569C72.8446 18.0527 71.4145 18 60.0072 18ZM60.0072 25.5649C71.2225 25.5649 72.548 25.6307 76.9772 25.8086C81.0723 25.993 83.3067 26.6873 84.7868 27.2624C86.7474 28.0246 88.1417 28.9323 89.6115 30.4019C91.0814 31.8716 91.989 33.2661 92.7507 35.2265C93.3258 36.7066 94.0176 38.941 94.2046 43.0357C94.4062 47.465 94.449 48.791 94.449 60.0059C94.449 71.2215 94.4029 72.5475 94.2046 76.9761C94.0175 81.0715 93.3258 83.2927 92.7507 84.7729C91.989 86.7333 91.0814 88.1397 89.6115 89.6099C88.1417 91.0796 86.7474 91.9873 84.7868 92.7495C83.3067 93.3225 81.0723 94.0043 76.9772 94.1908C72.5486 94.395 71.2234 94.4345 60.0072 94.4345C48.7909 94.4345 47.4657 94.3687 43.0372 94.1908C38.942 94.0063 36.7205 93.3245 35.2404 92.7495C33.2798 91.9873 31.8726 91.0796 30.4029 89.6099C28.9333 88.1397 28.0257 86.7333 27.2637 84.7729C26.6886 83.2927 26.0096 81.0715 25.8227 76.9761C25.6211 72.5475 25.5783 71.2215 25.5783 60.0059C25.5783 48.791 25.6244 47.465 25.8227 43.0357C26.0098 38.941 26.6886 36.7066 27.2637 35.2265C28.0257 33.2661 28.9333 31.8716 30.4029 30.4019C31.8726 28.9323 33.2798 28.0246 35.2404 27.2624C36.7205 26.6893 38.942 25.9957 43.0372 25.8086C47.4664 25.6044 48.7919 25.5649 60.0072 25.5649ZM82.4323 32.5382C79.6488 32.5382 77.3889 34.7976 77.3889 37.5814C77.3889 40.3652 79.6488 42.6247 82.4323 42.6247C85.2162 42.6247 87.4757 40.3652 87.4757 37.5814C87.4757 34.7976 85.2162 32.5382 82.4323 32.5382ZM60.0072 38.4305C48.095 38.4305 38.444 48.0948 38.444 60.0066C38.444 71.9191 48.095 81.5695 60.0072 81.5695C71.9193 81.5695 81.5832 71.9191 81.5832 60.0066C81.5832 48.0948 71.9193 38.4305 60.0072 38.4305ZM60.0072 46.0086C67.7397 46.0086 74.0052 52.2744 74.0052 60.0066C74.0052 67.7394 67.7397 74.0046 60.0072 74.0046C52.2746 74.0046 46.0091 67.7394 46.0091 60.0066C46.0091 52.2744 52.2746 46.0086 60.0072 46.0086Z" fill="white"></path> </svg> 