<svg width="201" height="29" viewBox="0 0 201 29" fill="none" xmlns="http://www.w3.org/2000/svg">
<g id="g8.svg" clip-path="url(#clip0_1_996)">
<path id="Vector" d="M3.76693 6.95478C3.76693 7.79403 3.88682 8.24938 4.1266 8.32128C4.36616 8.39328 4.79777 8.10552 5.42145 7.45813C6.28443 6.5716 7.26093 5.91203 8.35204 5.48049C9.44271 5.04887 10.5398 4.83302 11.6426 4.83302C12.7449 4.83302 13.7823 5.05523 14.7531 5.49847C15.7242 5.94245 16.5209 6.60743 17.1444 7.49417C17.6479 8.23754 18.0736 8.62137 18.4212 8.64513C18.7683 8.66916 19.2179 8.36952 19.7696 7.74585C20.5125 6.93127 21.3517 6.28384 22.2869 5.80381C23.2221 5.32475 24.1805 5.02511 25.1637 4.90497C26.1465 4.78531 27.1054 4.83302 28.0406 5.04887C28.9755 5.26464 29.8142 5.66044 30.5576 6.23544C31.3007 6.81087 31.894 7.56064 32.3377 8.48325C32.7812 9.4063 33.0029 10.5032 33.0029 11.7737V24.3957H29.9107V11.9172C29.9107 10.2873 29.6286 9.00436 29.0657 8.0697C28.5018 7.13472 27.7887 6.51745 26.9257 6.21763C26.0627 5.91799 25.1335 5.90637 24.1389 6.18155C23.1438 6.4576 22.2204 6.9788 21.3696 7.74585C20.5185 8.51342 19.8057 9.49627 19.2302 10.6947C18.6548 11.8937 18.3672 13.272 18.3672 14.8299V24.3957H15.2745V11.9172C15.2745 10.3351 15.0048 9.08272 14.4654 8.1594C13.9262 7.23684 13.2548 6.61317 12.4517 6.28954C11.648 5.96569 10.7615 5.91203 9.79076 6.12766C8.81948 6.34343 7.9081 6.79311 7.0577 7.47611C6.20634 8.1594 5.47512 9.05299 4.86399 10.1553C4.25266 11.2581 3.88682 12.5287 3.76693 13.9672V24.3957H0.530762V4.79718H3.76693V6.95478Z" fill="black"/>
<path id="Vector_2" d="M52.2416 11.8813C52.0018 11.2103 51.69 11.2103 51.3068 11.8813C50.7311 12.8884 49.9458 13.6317 48.951 14.1111C47.9561 14.5909 46.895 14.9264 45.7686 15.1177C44.6418 15.31 43.521 15.4235 42.4064 15.4596C41.2915 15.4954 40.3027 15.5616 39.4394 15.6574C38.6002 15.7532 37.959 16.0049 37.5157 16.4123C37.0717 16.8202 36.802 17.2753 36.7064 17.7789C36.6104 18.2824 36.6943 18.7738 36.9584 19.2532C37.222 19.733 37.6415 20.0927 38.2168 20.3322C39.4873 20.8597 40.7639 21.1591 42.0467 21.2311C43.3289 21.303 44.5514 21.1952 45.7147 20.9074C46.8775 20.6197 47.9443 20.1826 48.915 19.5948C49.8858 19.0076 50.6772 18.3125 51.2888 17.5092C51.9001 16.7064 52.3013 15.8192 52.4929 14.848C52.6849 13.8772 52.6012 12.8884 52.2416 11.8813ZM51.6659 21.2311C51.6659 20.1765 51.594 19.6371 51.4502 19.6128C51.3068 19.5895 50.8868 20.0207 50.1918 20.9074C49.4727 21.8426 48.5914 22.604 47.5488 23.1911C46.5061 23.7785 45.4029 24.1562 44.2401 24.3238C43.0773 24.491 41.9147 24.4254 40.752 24.126C39.589 23.8264 38.5406 23.2573 37.6056 22.4178C36.982 21.8426 36.491 21.1655 36.1311 20.3859C35.7716 19.6074 35.5794 18.8161 35.5556 18.0127C35.5316 17.2096 35.6817 16.4303 36.0053 15.6753C36.3291 14.9199 36.8623 14.2908 37.6056 13.7872C38.2763 13.3323 39.1161 12.9843 40.1227 12.7446C41.1298 12.505 42.1723 12.3129 43.2513 12.169C44.3301 12.0252 45.3907 11.9055 46.4342 11.8093C47.4769 11.7139 48.3757 11.5701 49.1312 11.378C49.8858 11.1861 50.4312 10.9167 50.7671 10.5687C51.1025 10.2215 51.1143 9.72374 50.803 9.07627C50.2278 8.09363 49.442 7.32062 48.4476 6.75703C47.4527 6.19413 46.3737 5.91202 45.2113 5.91202C44.048 5.91202 42.8674 6.21211 41.6692 6.81087C40.4703 7.41033 39.3794 8.38161 38.3964 9.72374L36.4549 8.06969C37.222 7.11095 38.2044 6.36763 39.4038 5.8399C40.602 5.31282 41.8848 4.98924 43.2513 4.86915C44.6176 4.74948 45.9962 4.82758 47.3865 5.10275C48.7769 5.37859 50.03 5.84608 51.1446 6.50535C52.2596 7.16488 53.1641 7.9977 53.8595 9.00436C54.5545 10.0115 54.9026 11.1861 54.9026 12.5287V24.3957H51.6659V21.2311Z" fill="black"/>
<path id="Vector_3" d="M61.0157 7.13472C61.0157 7.97398 61.1411 8.42932 61.3927 8.50123C61.6453 8.57322 62.082 8.29756 62.7055 7.6739C63.4965 6.85937 64.4076 6.21763 65.4389 5.75015C66.4692 5.2827 67.5119 4.98924 68.5668 4.86914C69.6218 4.74948 70.6587 4.80338 71.6777 5.03081C72.6963 5.25898 73.6074 5.66044 74.4107 6.23544C75.2139 6.81087 75.8549 7.56064 76.3346 8.48325C76.8134 9.4063 77.0537 10.5032 77.0537 11.7737V24.3957H73.9612V11.9172C73.9612 10.3351 73.6613 9.08272 73.0619 8.1594C72.463 7.23684 71.701 6.61317 70.7784 6.28954C69.8555 5.96569 68.8553 5.91203 67.7759 6.12766C66.6972 6.34343 65.6778 6.79925 64.7198 7.49417C63.7604 8.18975 62.933 9.09434 62.2381 10.2094C61.5427 11.3241 61.1354 12.6007 61.0157 14.0391V24.3957H57.7789V4.79718H61.0157V7.13472Z" fill="black"/>
<path id="Vector_4" d="M96.2926 11.8813C96.0527 11.2103 95.7406 11.2103 95.3578 11.8813C94.7825 12.8884 93.9968 13.6317 93.0024 14.1111C92.0075 14.5909 90.9469 14.9264 89.8196 15.1177C88.6927 15.31 87.5725 15.4235 86.4574 15.4596C85.3429 15.4954 84.3541 15.5616 83.4908 15.6574C82.6516 15.7532 82.0106 16.0049 81.5668 16.4123C81.1231 16.8202 80.8535 17.2753 80.7574 17.7789C80.6619 18.2824 80.7452 18.7738 81.0096 19.2532C81.2731 19.733 81.6931 20.0927 82.2684 20.3322C83.5386 20.8597 84.815 21.1591 86.0979 21.2311C87.38 21.303 88.6024 21.1952 89.7661 20.9074C90.9289 20.6197 91.9957 20.1826 92.9668 19.5948C93.9372 19.0076 94.7286 18.3125 95.3398 17.5092C95.951 16.7064 96.3522 15.8192 96.5447 14.848C96.7363 13.8772 96.6521 12.8884 96.2926 11.8813ZM95.7173 21.2311C95.7173 20.1765 95.6454 19.6371 95.5016 19.6128C95.3578 19.5895 94.9382 20.0207 94.2428 20.9074C93.5237 21.8426 92.6428 22.604 91.5997 23.1911C90.5571 23.7785 89.4543 24.1562 88.2915 24.3238C87.1287 24.491 85.9659 24.4254 84.8036 24.126C83.6403 23.8264 82.592 23.2573 81.6572 22.4178C81.0328 21.8426 80.5417 21.1655 80.1822 20.3859C79.8226 19.6074 79.6306 18.8161 79.6069 18.0127C79.5832 17.2096 79.7328 16.4303 80.0568 15.6753C80.3804 14.9199 80.9135 14.2908 81.6572 13.7872C82.328 13.3323 83.1672 12.9843 84.1739 12.7446C85.1806 12.505 86.2237 12.3129 87.3024 12.169C88.3814 12.0252 89.442 11.9055 90.4851 11.8093C91.5278 11.7139 92.4271 11.5701 93.1817 11.378C93.9372 11.1861 94.4826 10.9167 94.818 10.5687C95.1539 10.2215 95.1662 9.72374 94.8544 9.07627C94.2792 8.09363 93.4934 7.32062 92.499 6.75703C91.5041 6.19413 90.4255 5.91202 89.2627 5.91202C88.0999 5.91202 86.9187 6.21211 85.7204 6.81087C84.5212 7.41033 83.4303 8.38161 82.4481 9.72374L80.5062 8.06969C81.2731 7.11095 82.2561 6.36763 83.4549 5.8399C84.6536 5.31282 85.9361 4.98924 87.3024 4.86915C88.669 4.74948 90.0476 4.82758 91.4384 5.10275C92.8283 5.37859 94.0814 5.84608 95.196 6.50535C96.3106 7.16488 97.2151 7.9977 97.9109 9.00436C98.6059 10.0115 98.9536 11.1861 98.9536 12.5287V24.3957H95.7173V21.2311Z" fill="black"/>
<path id="Vector_5" d="M105.067 7.13472C105.067 7.97398 105.193 8.42932 105.444 8.50123C105.696 8.57322 106.133 8.29756 106.757 7.6739C107.548 6.85937 108.459 6.21763 109.49 5.75015C110.52 5.2827 111.563 4.98924 112.619 4.86914C113.673 4.74948 114.71 4.80338 115.729 5.03081C116.748 5.25898 117.658 5.66044 118.462 6.23544C119.265 6.81087 119.906 7.56064 120.386 8.48325C120.865 9.4063 121.105 10.5032 121.105 11.7737V24.3957H118.013V11.9172C118.013 10.3351 117.712 9.08272 117.114 8.1594C116.514 7.23684 115.753 6.61317 114.83 6.28954C113.907 5.96569 112.906 5.91203 111.828 6.12766C110.749 6.34343 109.729 6.79925 108.771 7.49417C107.812 8.18975 106.984 9.09434 106.289 10.2094C105.594 11.3241 105.187 12.6007 105.067 14.0391V24.3957H101.831V4.79718H105.067V7.13472Z" fill="black"/>
<path id="Vector_6" d="M140.344 11.8813C140.105 11.2103 139.793 11.2103 139.41 11.8813C138.834 12.8884 138.049 13.6317 137.054 14.1111C136.059 14.5909 134.998 14.9264 133.872 15.1177C132.745 15.31 131.624 15.4235 130.51 15.4596C129.394 15.4954 128.405 15.5616 127.542 15.6574C126.703 15.7532 126.062 16.0049 125.619 16.4123C125.175 16.8202 124.905 17.2753 124.81 17.7789C124.713 18.2824 124.797 18.7738 125.061 19.2532C125.324 19.733 125.744 20.0927 126.32 20.3322C127.59 20.8597 128.867 21.1591 130.149 21.2311C131.432 21.303 132.654 21.1952 133.817 20.9074C134.98 20.6197 136.047 20.1826 137.018 19.5948C137.989 19.0076 138.78 18.3125 139.392 17.5092C140.002 16.7064 140.404 15.8192 140.596 14.848C140.788 13.8772 140.704 12.8884 140.344 11.8813ZM139.769 21.2311C139.769 20.1765 139.697 19.6371 139.553 19.6128C139.41 19.5895 138.99 20.0207 138.294 20.9074C137.575 21.8426 136.694 22.604 135.651 23.1911C134.609 23.7785 133.506 24.1562 132.343 24.3238C131.18 24.491 130.017 24.4254 128.855 24.126C127.692 23.8264 126.643 23.2573 125.709 22.4178C125.085 21.8426 124.594 21.1655 124.234 20.3859C123.874 19.6074 123.682 18.8161 123.658 18.0127C123.634 17.2096 123.785 16.4303 124.108 15.6753C124.432 14.9199 124.965 14.2908 125.709 13.7872C126.379 13.3323 127.219 12.9843 128.225 12.7446C129.233 12.505 130.275 12.3129 131.354 12.169C132.433 12.0252 133.494 11.9055 134.537 11.8093C135.579 11.7139 136.478 11.5701 137.234 11.378C137.989 11.1861 138.534 10.9167 138.869 10.5687C139.206 10.2215 139.218 9.72374 138.906 9.07627C138.331 8.09363 137.545 7.32062 136.55 6.75703C135.555 6.19413 134.477 5.91202 133.314 5.91202C132.151 5.91202 130.97 6.21211 129.772 6.81087C128.573 7.41033 127.483 8.38161 126.499 9.72374L124.558 8.06969C125.324 7.11095 126.307 6.36763 127.506 5.8399C128.705 5.31282 129.987 4.98924 131.354 4.86915C132.72 4.74948 134.099 4.82758 135.49 5.10275C136.88 5.37859 138.133 5.84608 139.247 6.50535C140.363 7.16488 141.267 7.9977 141.962 9.00436C142.657 10.0115 143.006 11.1861 143.006 12.5287V24.3957H139.769V21.2311Z" fill="black"/>
<path id="Vector_7" d="M175.952 12.1321L173.396 14.6887L175.952 17.2456L178.509 14.6887L175.952 12.1321ZM165.482 10.9728C164.533 10.9728 163.588 11.3341 162.862 12.0596C162.14 12.7822 161.779 13.7304 161.779 14.6762C161.779 15.6246 162.14 16.5733 162.862 17.2958C164.31 18.7411 166.654 18.7411 168.098 17.2958L170.718 14.6762L170.716 14.6735L168.098 12.0596C167.376 11.3341 166.428 10.9728 165.482 10.9728ZM173.335 17.2933L172.061 16.0185L168.761 19.3205C166.197 21.8823 162.042 21.8823 159.478 19.3205C158.196 18.0384 157.556 16.3574 157.556 14.6762C157.556 12.9979 158.196 11.3166 159.478 10.0345C160.76 8.75246 162.438 8.11231 164.119 8.11231C165.8 8.11231 167.479 8.75246 168.761 10.0345L172.058 13.3311L173.332 12.0567L168.872 7.59549C166.917 5.63877 164.355 4.66248 161.791 4.66248C159.227 4.66248 156.663 5.63877 154.708 7.59549C152.754 9.55279 151.775 12.1146 151.775 14.6762C151.775 17.2408 152.754 19.8048 154.708 21.7592C158.604 25.6556 164.915 25.6709 168.826 21.8046C168.839 21.7893 168.854 21.7743 168.872 21.7592V21.7569L173.335 17.2958V17.2933ZM175.954 19.9129L173.335 22.5322C172.613 23.2548 172.252 24.2031 172.252 25.149C172.252 26.0975 172.613 27.0458 173.335 27.7684C174.06 28.4912 175.006 28.8522 175.954 28.8522C176.901 28.8522 177.849 28.4912 178.572 27.7684C180.019 26.3233 180.019 23.9771 178.572 22.5322L175.954 19.9129ZM175.952 9.4376L175.954 9.43997L178.572 6.82323C179.295 6.10003 179.658 5.15182 179.658 4.20356C179.658 3.25473 179.295 2.30941 178.572 1.58682C177.849 0.861312 176.901 0.500015 175.954 0.500015C175.006 0.500015 174.06 0.861312 173.335 1.58682C171.89 3.03199 171.89 5.37512 173.335 6.82323L175.952 9.4376ZM186.427 18.3796C187.376 18.3796 188.322 18.0183 189.047 17.2958C189.769 16.5733 190.131 15.6246 190.131 14.6762C190.131 13.7304 189.769 12.7822 189.047 12.0596C187.599 10.6115 185.256 10.6115 183.811 12.0596L181.191 14.6762L183.811 17.2958C184.533 18.0183 185.481 18.3796 186.427 18.3796ZM200.132 14.6762C200.132 17.2408 199.156 19.8048 197.199 21.7592C195.244 23.714 192.683 24.6926 190.118 24.6926C187.574 24.6926 185.03 23.7288 183.08 21.8046C183.066 21.7893 183.05 21.772 183.036 21.7569L178.572 17.2933V17.2905L179.844 16.0185L183.143 19.3205C184.425 20.6025 186.103 21.2424 187.785 21.2424C189.466 21.2424 191.144 20.6025 192.427 19.3205C193.709 18.0384 194.348 16.3574 194.348 14.6762C194.348 12.9979 193.709 11.3166 192.427 10.0345C189.862 7.4704 185.708 7.4704 183.143 10.0345L179.846 13.3311L178.574 12.0596L183.036 7.59549C186.947 3.68383 193.289 3.68383 197.199 7.59549C199.156 9.55279 200.132 12.1146 200.132 14.6762Z" fill="black"/>
</g>
<defs>
<clipPath id="clip0_1_996">
<rect width="199.938" height="28.5" fill="white" transform="translate(0.530762 0.5)"/>
</clipPath>
</defs>
</svg>
