<svg width="31" height="31" viewBox="0 0 31 31" fill="none" xmlns="http://www.w3.org/2000/svg">
<g clip-path="url(#clip0_1_1009)">
<path fill-rule="evenodd" clip-rule="evenodd" d="M15.5 30.5C23.7843 30.5 30.5 23.7843 30.5 15.5C30.5 7.21574 23.7843 0.5 15.5 0.5C7.21574 0.5 0.5 7.21574 0.5 15.5C0.5 23.7843 7.21574 30.5 15.5 30.5ZM8 12.3175C8 9.93674 9.93698 8 12.3175 8H18.6825C21.0633 8 23 9.93698 23 12.3175V18.7408C23 21.1214 21.0633 23.0584 18.6825 23.0584H12.3175C9.93674 23.0584 8 21.1214 8 18.7408V12.3175ZM11.5965 15.5016C11.5965 13.3654 13.3531 11.6277 15.5119 11.6277C17.6707 11.6277 19.4273 13.3654 19.4273 15.5016C19.4273 17.6376 17.6707 19.3753 15.5119 19.3753C13.3529 19.3753 11.5965 17.6376 11.5965 15.5016ZM13.0227 15.5016C13.0227 16.851 14.1392 17.9491 15.5119 17.9491C16.8846 17.9491 18.0012 16.8512 18.0012 15.5016C18.0012 14.152 16.8843 13.0541 15.5119 13.0541C14.1392 13.0541 13.0227 14.152 13.0227 15.5016ZM19.4974 12.3907C20.0062 12.3907 20.4187 11.9782 20.4187 11.4694C20.4187 10.9606 20.0062 10.5481 19.4974 10.5481C18.9886 10.5481 18.5762 10.9606 18.5762 11.4694C18.5762 11.9782 18.9886 12.3907 19.4974 12.3907Z" fill="black"/>
</g>
<defs>
<clipPath id="clip0_1_1009">
<rect width="30" height="30" fill="white" transform="translate(0.5 0.5)"/>
</clipPath>
</defs>
</svg>
