<svg width="31" height="31" viewBox="0 0 31 31" fill="none" xmlns="http://www.w3.org/2000/svg">
<g clip-path="url(#clip0_1_1011)">
<path fill-rule="evenodd" clip-rule="evenodd" d="M15.5 30.5C23.7843 30.5 30.5 23.7843 30.5 15.5C30.5 7.21574 23.7843 0.5 15.5 0.5C7.21574 0.5 0.5 7.21574 0.5 15.5C0.5 23.7843 7.21574 30.5 15.5 30.5ZM21.4288 9.19784C19.8852 7.6523 17.8322 6.80081 15.645 6.8C11.1385 6.8 7.47038 10.4676 7.46876 14.9757C7.46822 16.4167 7.84469 17.8234 8.56004 19.0631L7.4 23.3L11.7343 22.1632C12.9285 22.8147 14.2732 23.1579 15.6414 23.1584H15.6447C20.1509 23.1584 23.819 19.4903 23.8209 14.9825C23.8222 12.7975 22.9727 10.7434 21.4288 9.19784ZM19.3726 16.6876C19.1682 16.5853 18.164 16.0912 17.9765 16.0231C17.7894 15.9548 17.653 15.9207 17.5168 16.1253C17.3807 16.33 16.9892 16.7899 16.87 16.9264C16.7508 17.0628 16.6315 17.0797 16.4275 16.9774C16.3941 16.9606 16.3485 16.9409 16.2923 16.9165C16.0046 16.7917 15.4372 16.5457 14.7845 15.9633C14.1772 15.4215 13.7672 14.7525 13.648 14.5482C13.5287 14.3436 13.6351 14.2331 13.7374 14.1313C13.7988 14.0701 13.8692 13.9843 13.9396 13.8986C13.9747 13.8558 14.0098 13.813 14.0438 13.7734C14.1304 13.6723 14.168 13.5955 14.2191 13.4915C14.2282 13.4728 14.2378 13.4533 14.2482 13.4326C14.3164 13.2962 14.2823 13.177 14.2312 13.0747C14.1972 13.0063 14.0035 12.535 13.828 12.1077C13.7407 11.8952 13.6578 11.6936 13.6013 11.5578C13.4548 11.2061 13.3065 11.207 13.1874 11.2077C13.1716 11.2078 13.1563 11.2079 13.1416 11.2072C13.0226 11.2012 12.8862 11.2001 12.7501 11.2001C12.6139 11.2001 12.3927 11.2511 12.2053 11.4557C12.1932 11.4689 12.1797 11.4833 12.165 11.499C11.9521 11.7263 11.4902 12.2194 11.4902 13.1601C11.4902 14.1632 12.2186 15.1324 12.3237 15.2723L12.3245 15.2733C12.3311 15.2822 12.343 15.2993 12.36 15.3236C12.6039 15.6735 13.8985 17.5307 15.8144 18.3581C16.302 18.5687 16.6823 18.6943 16.9791 18.7884C17.4685 18.9439 17.9138 18.922 18.266 18.8694C18.6586 18.8107 19.4746 18.3753 19.6448 17.8981C19.8151 17.421 19.8151 17.0118 19.7641 16.9266C19.7229 16.8577 19.6264 16.811 19.4833 16.7418C19.449 16.7253 19.412 16.7074 19.3726 16.6876Z" fill="black"/>
</g>
<defs>
<clipPath id="clip0_1_1011">
<rect width="30" height="30" fill="white" transform="translate(0.5 0.5)"/>
</clipPath>
</defs>
</svg>
