<svg width="335" height="330" viewBox="0 0 335 330" fill="none" xmlns="http://www.w3.org/2000/svg">
<g clip-path="url(#clip0_1_676)">
<path d="M226.855 187.621V278.163" stroke="#C45317" stroke-width="2.01205"/>
<path d="M226.855 51.8071V142.349" stroke="#C45317" stroke-width="2.01205"/>
<path d="M0.5 1.50586L176.554 1.50588" stroke="#C45317" stroke-width="2.01205"/>
<path d="M277.157 328.464H334.5" stroke="#C45317" stroke-width="2.01205"/>
<path d="M226.855 51.8071C226.855 45.2014 225.555 38.6604 223.026 32.5576C220.498 26.4548 216.793 20.9097 212.122 16.2388C207.451 11.5678 201.906 7.86268 195.803 5.33482C189.701 2.80694 183.16 1.50586 176.554 1.50586" stroke="#C45317" stroke-width="2.01205"/>
<path d="M226.855 278.163C226.855 284.768 228.156 291.309 230.684 297.412C233.212 303.514 236.918 309.06 241.589 313.731C246.26 318.402 251.805 322.107 257.907 324.635C264.01 327.163 270.551 328.464 277.157 328.464" stroke="#C45317" stroke-width="2.01205"/>
<path d="M166.494 172.53C170.383 172.53 173.536 169.377 173.536 165.488C173.536 161.599 170.383 158.446 166.494 158.446C162.605 158.446 159.452 161.599 159.452 165.488C159.452 169.377 162.605 172.53 166.494 172.53Z" fill="#C45317"/>
<path d="M190.639 172.53C194.528 172.53 197.681 169.377 197.681 165.488C197.681 161.599 194.528 158.446 190.639 158.446C186.749 158.446 183.596 161.599 183.596 165.488C183.596 169.377 186.749 172.53 190.639 172.53Z" fill="#C45317"/>
<path d="M214.783 172.53C218.672 172.53 221.825 169.377 221.825 165.488C221.825 161.599 218.672 158.446 214.783 158.446C210.894 158.446 207.741 161.599 207.741 165.488C207.741 169.377 210.894 172.53 214.783 172.53Z" fill="#C45317"/>
<path d="M238.928 172.53C242.817 172.53 245.97 169.377 245.97 165.488C245.97 161.599 242.817 158.446 238.928 158.446C235.038 158.446 231.886 161.599 231.886 165.488C231.886 169.377 235.038 172.53 238.928 172.53Z" fill="#C45317"/>
<path d="M263.072 172.53C266.962 172.53 270.114 169.377 270.114 165.488C270.114 161.599 266.962 158.446 263.072 158.446C259.183 158.446 256.03 161.599 256.03 165.488C256.03 169.377 259.183 172.53 263.072 172.53Z" fill="#C45317"/>
<path d="M287.217 172.53C291.106 172.53 294.259 169.377 294.259 165.488C294.259 161.599 291.106 158.446 287.217 158.446C283.328 158.446 280.175 161.599 280.175 165.488C280.175 169.377 283.328 172.53 287.217 172.53Z" fill="#C45317"/>
</g>
<defs>
<clipPath id="clip0_1_676">
<rect width="334" height="328.97" fill="white" transform="translate(0.5 0.5)"/>
</clipPath>
</defs>
</svg>
