<svg width="59" height="59" viewBox="0 0 59 59" fill="none" xmlns="http://www.w3.org/2000/svg">
<g id="Group_59.svg" clip-path="url(#clip0_1_270)">
<path id="Vector" d="M54.1085 25.0747C54.69 28.3058 54.6295 31.6198 53.9303 34.8276C53.2311 38.0353 51.9069 41.0739 50.0334 43.7699C48.1598 46.4658 45.7736 48.7664 43.0111 50.5402C40.2484 52.3141 37.1634 53.5263 33.9323 54.1078C30.7013 54.6894 27.3872 54.6289 24.1794 53.9297C20.9718 53.2304 17.9331 51.9062 15.2371 50.0328C12.5412 48.1592 10.2406 45.773 8.46683 43.0104C6.69299 40.2477 5.48076 37.1628 4.89921 33.9317L29.5038 29.5032L54.1085 25.0747Z" fill="#C45317"/>
<path id="Vector_2" d="M4.89921 33.9316C4.31766 30.7005 4.37817 27.3865 5.0774 24.1787C5.77664 20.971 7.10082 17.9324 8.97429 15.2364C10.8479 12.5405 13.2341 10.2399 15.9966 8.4661C18.7593 6.6923 21.8443 5.48002 25.0754 4.89847C28.3064 4.31692 31.6205 4.37747 34.8283 5.07667C38.0359 5.77589 41.0746 7.10006 43.7705 8.97358C46.4665 10.8471 48.7671 13.2333 50.5409 15.9959C52.3147 18.7586 53.5269 21.8435 54.1085 25.0746L29.5038 29.5031L4.89921 33.9316Z" fill="#BB9A6D"/>
</g>
<defs>
<clipPath id="clip0_1_270">
<rect width="50" height="50" fill="white" transform="translate(49.68 0.469971) rotate(79.7968)"/>
</clipPath>
</defs>
</svg>
